<svg xmlns="http://www.w3.org/2000/svg" width="20" height="22" viewBox="0 0 20 22" fill="none"><path fill-rule="evenodd" clip-rule="evenodd" d="M12.8642 11.4085C12.6988 10.9318 12.3923 10.5191 11.9871 10.2272C11.5818 9.93528 11.0977 9.77853 10.6014 9.77852V9.16736H9.40158V9.77852C8.76516 9.77852 8.15481 10.0361 7.70479 10.4945C7.25477 10.953 7.00195 11.5748 7.00195 12.2232C7.00195 12.8715 7.25477 13.4933 7.70479 13.9518C8.15481 14.4103 8.76516 14.6678 9.40158 14.6678V17.1125C8.87966 17.1125 8.43513 16.7733 8.26956 16.2978C8.24499 16.22 8.20536 16.148 8.15301 16.0861C8.10066 16.0242 8.03666 15.9736 7.96478 15.9373C7.8929 15.901 7.81462 15.8798 7.73455 15.8749C7.65448 15.87 7.57426 15.8815 7.49863 15.9087C7.42299 15.9359 7.35349 15.9783 7.29422 16.0334C7.23496 16.0885 7.18713 16.1551 7.15358 16.2293C7.12002 16.3035 7.10142 16.3839 7.09887 16.4655C7.09632 16.5472 7.10988 16.6286 7.13873 16.7048C7.30421 17.1815 7.61067 17.5942 8.01592 17.8861C8.42116 18.178 8.90527 18.3348 9.40158 18.3348V18.946H10.6014V18.3348C11.2378 18.3348 11.8482 18.0772 12.2982 17.6188C12.7482 17.1603 13.001 16.5385 13.001 15.8901C13.001 15.2418 12.7482 14.62 12.2982 14.1615C11.8482 13.7031 11.2378 13.4455 10.6014 13.4455V11.0008C10.8495 11.0008 11.0916 11.0791 11.2942 11.225C11.4968 11.3709 11.6501 11.5772 11.7328 11.8155C11.7858 11.9684 11.8962 12.0935 12.0398 12.1634C12.1109 12.1981 12.1879 12.2181 12.2666 12.2223C12.3453 12.2266 12.424 12.2151 12.4983 12.1883C12.5726 12.1616 12.641 12.1202 12.6996 12.0666C12.7582 12.0129 12.8058 11.948 12.8398 11.8756C12.8738 11.8032 12.8934 11.7247 12.8976 11.6445C12.9018 11.5644 12.8905 11.4842 12.8642 11.4085ZM9.40158 11.0008C9.08337 11.0008 8.77819 11.1296 8.55318 11.3589C8.32818 11.5881 8.20177 11.899 8.20177 12.2232C8.20177 12.5473 8.32818 12.8583 8.55318 13.0875C8.77819 13.3167 9.08337 13.4455 9.40158 13.4455V11.0008ZM10.6014 17.1125C10.9196 17.1125 11.2248 16.9837 11.4498 16.7545C11.6748 16.5252 11.8012 16.2143 11.8012 15.8901C11.8012 15.566 11.6748 15.2551 11.4498 15.0258C11.2248 14.7966 10.9196 14.6678 10.6014 14.6678V17.1125Z" fill="white"></path><path fill-rule="evenodd" clip-rule="evenodd" d="M3.49437 1.60186C4.96654 0.86785 7.38177 0 10.025 0C12.613 0 14.9646 0.831791 16.429 1.55602L16.5117 1.59697C16.9533 1.81943 17.3096 2.02967 17.5604 2.20018L15.3443 5.50046C20.4531 10.8212 24.3993 22 10.025 22C-4.34941 22 -0.509408 11.0241 4.64379 5.50046L2.44213 2.20018C2.61191 2.08712 2.82727 1.95572 3.08403 1.81637C3.21121 1.7467 3.34799 1.67458 3.49437 1.60186ZM13.9202 5.45707L15.6941 2.81501C14.0443 2.93602 12.0814 3.33083 10.1917 3.88821C8.84194 4.28547 7.34217 4.22496 5.95339 3.964C5.60342 3.8979 5.25586 3.81921 4.91135 3.72809L6.06317 5.45584C8.53179 6.3512 11.4509 6.3512 13.9202 5.45707ZM5.37028 6.49665C8.25883 7.63341 11.7305 7.63341 14.619 6.49543C15.8248 7.79029 16.8334 9.26178 17.6114 10.861C18.4225 12.5465 18.864 14.2315 18.792 15.6836C18.7224 17.085 18.1813 18.2823 16.9455 19.1722C15.6575 20.0993 13.4912 20.7777 10.0244 20.7777C6.5539 20.7777 4.37743 20.1109 3.07744 19.1942C1.83263 18.3159 1.28611 17.1345 1.20873 15.7521C1.12774 14.3159 1.55967 12.6394 2.36775 10.9422C3.13863 9.32389 4.21426 7.76604 5.37028 6.49665ZM4.68039 2.39331C5.16031 2.53877 5.66183 2.66528 6.17055 2.76123C7.46035 3.00325 8.75375 3.0387 9.85758 2.71295C11.1439 2.33118 12.4522 2.03093 13.775 1.81393C12.6711 1.47535 11.3801 1.22232 10.0244 1.22232C7.95768 1.22232 6.03018 1.80965 4.68039 2.39331Z" fill="white"></path></svg>