<svg xmlns="http://www.w3.org/2000/svg" width="35" height="35" viewBox="0 0 35 35" fill="none"><circle cx="17.5" cy="17.5" r="17.5" fill="white"></circle><path d="M9.72168 27.2223V21.5202C9.72168 20.3302 10.141 19.3158 10.9797 18.4771C11.8184 17.6384 12.8328 17.2194 14.0228 17.2201H15.275V9.36742C15.275 8.92992 15.4247 8.55561 15.7242 8.2445C16.0243 7.93339 16.3918 7.77783 16.8267 7.77783H18.1722C18.6071 7.77783 18.9746 7.93339 19.2747 8.2445C19.5748 8.55561 19.7246 8.92992 19.7239 9.36742V17.2201H20.9586C22.1532 17.2201 23.1717 17.6391 24.0143 18.4771C24.8569 19.3152 25.2779 20.3295 25.2772 21.5202V27.2223H9.72168ZM10.6939 26.2501H13.3675V22.8278C13.3675 22.6904 13.4142 22.5754 13.5075 22.4827C13.6008 22.3894 13.7165 22.3427 13.8546 22.3427C13.992 22.3427 14.1074 22.3894 14.2007 22.4827C14.294 22.576 14.3404 22.6914 14.3397 22.8288V26.2501H17.0133V22.8278C17.0133 22.6904 17.06 22.5754 17.1533 22.4827C17.2467 22.3894 17.3624 22.3427 17.5004 22.3427C17.6385 22.3427 17.7539 22.3894 17.8465 22.4827C17.9392 22.576 17.9856 22.6914 17.9856 22.8288V26.2501H20.6592V22.8278C20.6592 22.6904 20.7058 22.5754 20.7992 22.4827C20.8925 22.39 21.0082 22.3433 21.1463 22.3427C21.2843 22.342 21.3997 22.3887 21.4924 22.4827C21.5851 22.5767 21.6314 22.692 21.6314 22.8288V26.2501H24.305V21.5202C24.305 20.5849 23.9796 19.7964 23.3289 19.1548C22.6782 18.5131 21.8881 18.1923 20.9586 18.1923H14.0218C13.0976 18.1923 12.3117 18.5157 11.6642 19.1626C11.0167 19.8094 10.6933 20.5953 10.6939 21.5202V26.2501Z" fill="#3EB73C"></path></svg>