<svg xmlns="http://www.w3.org/2000/svg" width="41" height="41" viewBox="0 0 41 41" fill="none"><circle cx="20.5" cy="20.5" r="20.5" fill="#3EB73C"></circle><path fill-rule="evenodd" clip-rule="evenodd" d="M24.5386 13.2838C23.5817 12.3266 22.2891 11.7806 20.9358 11.7617H20.8845C19.5311 11.7803 18.2382 12.3262 17.2811 13.2833C16.324 14.2405 15.7781 15.5333 15.7595 16.8867C15.7429 17.8477 16.0132 18.7919 16.536 19.5991L20.5693 27.7773H21.2522L25.2843 19.5991C25.8084 18.7919 26.0787 17.8477 26.0608 16.8867C26.0419 15.5334 25.4958 14.2408 24.5386 13.2838ZM20.814 13.043L20.9191 13.0558L21.0139 13.043C22.0204 13.0868 22.9719 13.5146 23.6728 14.2383C24.3736 14.962 24.7706 15.9267 24.7821 16.9341C24.7919 17.6491 24.5831 18.35 24.1837 18.9431L24.1581 18.9867L24.1363 19.0315L20.9101 25.5723L17.6852 19.0379L17.6635 18.988L17.6378 18.9444C17.2384 18.3513 17.0297 17.6504 17.0395 16.9354C17.0504 15.9268 17.4479 14.9609 18.1499 14.2367C18.8519 13.5125 19.805 13.0852 20.8128 13.043H20.814ZM21.5982 15.822C21.4583 15.7284 21.3013 15.6634 21.1362 15.6305C20.9712 15.5976 20.8013 15.5975 20.6362 15.6303C20.4711 15.6631 20.3141 15.7281 20.1741 15.8215C20.0342 15.915 19.914 16.0351 19.8204 16.175C19.7269 16.3149 19.6618 16.4719 19.6289 16.6369C19.596 16.802 19.596 16.9719 19.6287 17.137C19.6615 17.302 19.7265 17.459 19.82 17.599C19.9134 17.739 20.0335 17.8592 20.1734 17.9527C20.456 18.1417 20.802 18.2106 21.1354 18.1444C21.4688 18.0782 21.7622 17.8823 21.9512 17.5997C22.1401 17.3172 22.209 16.9712 22.1428 16.6378C22.0766 16.3044 21.8807 16.0109 21.5982 15.822ZM19.4623 14.756C19.7419 14.5595 20.0579 14.4209 20.3919 14.3483C20.7258 14.2758 21.0708 14.2707 21.4067 14.3335C21.7427 14.3963 22.0626 14.5256 22.3478 14.7139C22.633 14.9021 22.8776 15.1456 23.0673 15.4298C23.257 15.714 23.388 16.0333 23.4524 16.3689C23.5169 16.7045 23.5136 17.0495 23.4428 17.3838C23.3719 17.7181 23.2349 18.0349 23.0398 18.3154C22.8447 18.596 22.5954 18.8346 22.3067 19.0174C21.7415 19.3752 21.0589 19.4979 20.4045 19.3592C19.7502 19.2204 19.176 18.8313 18.8046 18.275C18.4333 17.7186 18.2942 17.0391 18.4171 16.3816C18.54 15.7241 18.9151 15.1407 19.4623 14.756Z" fill="white"></path></svg>