<svg xmlns="http://www.w3.org/2000/svg" width="40" height="40" viewBox="0 0 40 40" fill="none"><circle cx="20" cy="20" r="20" fill="#3EB73C"></circle><path d="M25.0063 22.1125C24.2375 22.1125 23.4937 21.9875 22.8 21.7625C22.6913 21.7257 22.5745 21.7202 22.4628 21.7467C22.3512 21.7733 22.2492 21.8307 22.1688 21.9125L21.1875 23.1438C19.4187 22.3 17.7625 20.7062 16.8813 18.875L18.1 17.8375C18.2687 17.6625 18.3187 17.4188 18.25 17.2C18.0187 16.5062 17.9 15.7625 17.9 14.9937C17.9 14.6562 17.6188 14.375 17.2812 14.375H15.1188C14.7813 14.375 14.375 14.525 14.375 14.9937C14.375 20.8 19.2063 25.625 25.0063 25.625C25.45 25.625 25.625 25.2312 25.625 24.8875V22.7313C25.625 22.3938 25.3438 22.1125 25.0063 22.1125Z" fill="white"></path></svg>