<svg xmlns="http://www.w3.org/2000/svg" width="40" height="40" viewBox="0 0 40 40" fill="none"><circle cx="20" cy="20" r="20" fill="#3EB73C"></circle><path d="M21.875 24.375H12.5L12.4981 14.9413L19.6444 19.8888C19.7489 19.9611 19.8729 19.9998 20 19.9998C20.1271 19.9998 20.2511 19.9611 20.3556 19.8888L27.5 14.9437V20.625H28.75V14.375C28.7495 14.0436 28.6176 13.726 28.3833 13.4917C28.149 13.2574 27.8314 13.1255 27.5 13.125H12.5C12.1686 13.1253 11.8508 13.2571 11.6165 13.4915C11.3821 13.7258 11.2503 14.0436 11.25 14.375V24.375C11.2505 24.7064 11.3824 25.024 11.6167 25.2583C11.851 25.4926 12.1686 25.6245 12.5 25.625H21.875V24.375ZM26.1244 14.375L20 18.615L13.8756 14.375H26.1244Z" fill="white"></path><path d="M26.25 26.875C27.6307 26.875 28.75 25.7557 28.75 24.375C28.75 22.9943 27.6307 21.875 26.25 21.875C24.8693 21.875 23.75 22.9943 23.75 24.375C23.75 25.7557 24.8693 26.875 26.25 26.875Z" fill="white"></path></svg>