<svg xmlns="http://www.w3.org/2000/svg" width="34" height="37" viewBox="0 0 34 37" fill="none"><path d="M7.61035 26.1667C7.61035 25.9347 7.51816 25.7121 7.35407 25.548C7.18998 25.3839 6.96742 25.2917 6.73535 25.2917C6.50329 25.2917 6.28073 25.3839 6.11663 25.548C5.95254 25.7121 5.86035 25.9347 5.86035 26.1667V30.8334C5.86035 31.0655 5.95254 31.288 6.11663 31.4521C6.28073 31.6162 6.50329 31.7084 6.73535 31.7084C6.96742 31.7084 7.18998 31.6162 7.35407 31.4521C7.51816 31.288 7.61035 31.0655 7.61035 30.8334V26.1667ZM16.0687 25.2917C16.3007 25.2917 16.5233 25.3839 16.6874 25.548C16.8515 25.7121 16.9437 25.9347 16.9437 26.1667V30.8334C16.9437 31.0655 16.8515 31.288 16.6874 31.4521C16.5233 31.6162 16.3007 31.7084 16.0687 31.7084C15.8366 31.7084 15.6141 31.6162 15.45 31.4521C15.2859 31.288 15.1937 31.0655 15.1937 30.8334V26.1667C15.1937 25.9347 15.2859 25.7121 15.45 25.548C15.6141 25.3839 15.8366 25.2917 16.0687 25.2917ZM12.277 26.1667C12.277 25.9347 12.1848 25.7121 12.0207 25.548C11.8566 25.3839 11.6341 25.2917 11.402 25.2917C11.17 25.2917 10.9474 25.3839 10.7833 25.548C10.6192 25.7121 10.527 25.9347 10.527 26.1667V30.8334C10.527 31.0655 10.6192 31.288 10.7833 31.4521C10.9474 31.6162 11.17 31.7084 11.402 31.7084C11.6341 31.7084 11.8566 31.6162 12.0207 31.4521C12.1848 31.288 12.277 31.0655 12.277 30.8334V26.1667Z" fill="black"></path><path fill-rule="evenodd" clip-rule="evenodd" d="M17.5549 15.0518C16.9996 14.8348 16.3778 14.7987 15.5809 14.7928C15.4154 14.4434 15.1541 14.1481 14.8274 13.9414C14.5006 13.7346 14.1219 13.6249 13.7353 13.625H9.06859C8.68206 13.6248 8.30342 13.7343 7.97669 13.9409C7.64996 14.1474 7.38857 14.4424 7.22292 14.7917C6.42492 14.7987 5.80425 14.8348 5.24892 15.0518C4.58599 15.3112 4.00944 15.7518 3.58525 16.3235C3.15709 16.8987 2.95525 17.6383 2.67992 18.6545L1.94725 21.3413C1.48786 21.5722 1.08541 21.9021 0.768918 22.3073C0.0432511 23.2372 -0.0850821 24.3443 0.044418 25.6137C0.169251 26.8457 0.557751 28.3973 1.04308 30.3387L1.07342 30.4635C1.38142 31.6908 1.62992 32.6883 1.92625 33.4665C2.23542 34.2785 2.62858 34.9435 3.27492 35.4487C3.92242 35.9538 4.66325 36.172 5.52542 36.277C6.35142 36.375 7.38042 36.375 8.64625 36.375H14.1576C15.4234 36.375 16.4513 36.375 17.2784 36.2758C18.1418 36.1732 18.8814 35.9538 19.5278 35.4475C20.1753 34.9435 20.5673 34.2785 20.8764 33.4665C21.1739 32.6883 21.4224 31.6908 21.7293 30.4623L21.7608 30.3398C22.2461 28.3973 22.6334 26.8457 22.7594 25.6148C22.8878 24.3432 22.7594 23.2372 22.0338 22.3073C21.7176 21.9023 21.3156 21.5724 20.8566 21.3413L20.1239 18.6545C19.8474 17.6383 19.6456 16.8987 19.2186 16.3223C18.7942 15.7511 18.2177 15.3108 17.5549 15.0518ZM5.88592 16.6817C6.14259 16.5813 6.45292 16.5522 7.22409 16.544C7.55309 17.2323 8.25542 17.7083 9.06742 17.7083H13.7341C14.5484 17.7083 15.2508 17.2323 15.5798 16.544C16.3509 16.5522 16.6613 16.5813 16.9179 16.6817C17.2749 16.8217 17.5853 17.0585 17.8139 17.3665C18.0193 17.643 18.1394 18.0292 18.4789 19.274L18.8919 20.7872C17.6809 20.625 16.1176 20.625 14.1751 20.625H8.62759C6.68625 20.625 5.12292 20.625 3.91192 20.7872L4.32492 19.274C4.66325 18.0292 4.78459 17.643 4.98992 17.3665C5.21837 17.0586 5.52888 16.8213 5.88592 16.6817ZM9.06859 15.375C8.99123 15.375 8.91704 15.4057 8.86235 15.4604C8.80765 15.5151 8.77692 15.5893 8.77692 15.6667C8.77692 15.744 8.80765 15.8182 8.86235 15.8729C8.91704 15.9276 8.99123 15.9583 9.06859 15.9583H13.7353C13.8126 15.9583 13.8868 15.9276 13.9415 15.8729C13.9962 15.8182 14.0269 15.744 14.0269 15.6667C14.0269 15.5893 13.9962 15.5151 13.9415 15.4604C13.8868 15.4057 13.8126 15.375 13.7353 15.375H9.06859ZM2.14908 23.3842C2.47458 22.9677 2.98908 22.6877 4.05075 22.5337C5.13692 22.3773 6.60925 22.375 8.70109 22.375H14.1028C16.1946 22.375 17.6658 22.3773 18.7519 22.5337C19.8148 22.6877 20.3293 22.9677 20.6548 23.3853C20.9803 23.8018 21.1273 24.3677 21.0176 25.4363C20.9068 26.5283 20.5521 27.9563 20.0446 29.9863C19.7214 31.279 19.4963 32.175 19.2419 32.8447C18.9946 33.491 18.7531 33.8328 18.4509 34.0697C18.1488 34.3053 17.7579 34.4558 17.0708 34.5387C16.3591 34.6238 15.4374 34.625 14.1028 34.625H8.70109C7.36642 34.625 6.44359 34.6238 5.73309 34.5387C5.04475 34.457 4.65509 34.3053 4.35292 34.0697C4.04959 33.8328 3.80809 33.491 3.56192 32.8447C3.30759 32.175 3.08242 31.279 2.75809 29.9863C2.25175 27.9563 1.89592 26.5283 1.78508 25.4363C1.67658 24.3677 1.82358 23.8007 2.14908 23.3842Z" fill="black"></path><circle cx="24.4023" cy="9" r="9" fill="#3EB73C"></circle><path d="M27.1973 8.01953V9.41406C27.1973 10.082 27.1309 10.6523 26.998 11.125C26.8691 11.5938 26.6816 11.9746 26.4355 12.2676C26.1895 12.5605 25.8945 12.7754 25.5508 12.9121C25.2109 13.0488 24.8301 13.1172 24.4082 13.1172C24.0723 13.1172 23.7598 13.0742 23.4707 12.9883C23.1855 12.9023 22.9277 12.7676 22.6973 12.584C22.4668 12.4004 22.2695 12.1641 22.1055 11.875C21.9453 11.582 21.8203 11.2324 21.7305 10.8262C21.6445 10.4199 21.6016 9.94922 21.6016 9.41406V8.01953C21.6016 7.34766 21.668 6.78125 21.8008 6.32031C21.9336 5.85547 22.123 5.47852 22.3691 5.18945C22.6152 4.89648 22.9082 4.68359 23.248 4.55078C23.5918 4.41797 23.9746 4.35156 24.3965 4.35156C24.7363 4.35156 25.0488 4.39453 25.334 4.48047C25.623 4.5625 25.8809 4.69336 26.1074 4.87305C26.3379 5.05273 26.5332 5.28711 26.6934 5.57617C26.8574 5.86133 26.9824 6.20703 27.0684 6.61328C27.1543 7.01562 27.1973 7.48438 27.1973 8.01953ZM25.7852 9.61328V7.80859C25.7852 7.46875 25.7656 7.16992 25.7266 6.91211C25.6875 6.65039 25.6289 6.42969 25.5508 6.25C25.4766 6.06641 25.3828 5.91797 25.2695 5.80469C25.1562 5.6875 25.0273 5.60352 24.8828 5.55273C24.7383 5.49805 24.5762 5.4707 24.3965 5.4707C24.1777 5.4707 23.9824 5.51367 23.8105 5.59961C23.6387 5.68164 23.4941 5.81445 23.377 5.99805C23.2598 6.18164 23.1699 6.42383 23.1074 6.72461C23.0488 7.02148 23.0195 7.38281 23.0195 7.80859V9.61328C23.0195 9.95703 23.0391 10.2598 23.0781 10.5215C23.1172 10.7832 23.1758 11.0078 23.2539 11.1953C23.332 11.3789 23.4258 11.5312 23.5352 11.6523C23.6484 11.7695 23.7773 11.8555 23.9219 11.9102C24.0703 11.9648 24.2324 11.9922 24.4082 11.9922C24.6309 11.9922 24.8281 11.9492 25 11.8633C25.1719 11.7773 25.3164 11.6406 25.4336 11.4531C25.5508 11.2617 25.6387 11.0137 25.6973 10.709C25.7559 10.4043 25.7852 10.0391 25.7852 9.61328Z" fill="white"></path></svg>