<svg xmlns="http://www.w3.org/2000/svg" width="72" height="73" viewBox="0 0 72 73" fill="none"><path d="M27.4472 63.0371L27.5302 40.1241C23.8362 41.1991 20.9142 45.6871 20.4542 51.9441C19.9742 58.4601 23.8862 62.0521 27.4472 63.0371ZM44.7162 40.0301L44.5562 62.9421C45.5822 62.5731 47.3282 62.1061 49.1592 60.0861C51.1562 58.1241 51.8492 54.7161 51.6552 51.5961C51.4852 48.8781 50.8332 46.1681 49.5972 44.3011C47.4652 40.9181 45.7222 40.4401 44.7162 40.0301Z" fill="#F4F6FA"></path><path d="M44.5858 39.946L40.8548 41.139L39.4038 45.588L39.2478 58.963L41.0298 61.952L44.5768 62.876L44.5858 39.946ZM32.3648 58.228L32.5308 44.417L31.1678 41.14C30.8908 40.997 27.8058 40.176 27.8058 40.176C27.6758 40.382 27.7428 63.076 27.7428 63.076L31.0108 62.079C31.0108 62.079 32.4528 59.597 32.3658 58.229L32.3648 58.228Z" fill="#F4F6FA"></path><path d="M60.8332 48.8C67.8042 31.867 57.7502 18.65 55.6002 16.058C54.5612 14.804 45.7782 7.39796 35.4482 7.62396C26.5012 7.82096 16.5332 15.089 13.3522 19.979C7.41821 29.617 9.40021 41.581 9.41021 41.646C11.1072 51.389 13.9802 54.244 13.9802 54.244C13.9802 54.244 15.6382 52.833 14.2272 49.944C13.2502 48.416 11.5852 41.617 11.5852 36.119C11.5852 21.384 22.0882 10.266 36.0152 10.257C49.9432 10.266 60.4452 21.384 60.4452 36.119C60.4452 41.619 59.1052 47.616 57.8712 49.679C56.2552 52.761 58.0712 54.295 58.0712 54.295C58.2842 54.033 59.0212 51.775 60.8332 48.8Z" fill="#D0CFCE"></path><path d="M31.1611 41.134C31.6551 41.3884 32.0696 41.7736 32.3594 42.2477C32.6492 42.7218 32.803 43.2664 32.8041 43.822V59.326C32.7391 60.551 32.8981 60.972 31.0041 62.074M40.8591 41.126C40.4225 41.3926 40.0608 41.7657 39.8079 42.2103C39.5549 42.655 39.4191 43.1565 39.4131 43.668L39.2401 59.172C39.2339 59.7641 39.403 60.3447 39.7261 60.8409C40.0493 61.337 40.512 61.7264 41.0561 61.96M27.5421 40.124C27.5421 40.124 21.1881 41.909 20.4741 51.613C19.7601 61.317 27.4471 63.037 27.4471 63.037L27.5421 40.124ZM44.7161 40.03C44.7161 40.03 51.0501 41.885 51.6551 51.596C52.2601 61.307 44.5551 62.942 44.5551 62.942L44.7161 40.03Z" stroke="#3EB73C" stroke-width="2" stroke-linecap="round" stroke-linejoin="round"></path><path d="M58.047 54.308C61.257 49.25 63.137 43.138 63.137 36.119C63.137 20.36 51.784 7.58302 36.031 7.56702H36C20.247 7.58402 8.89502 20.36 8.89502 36.119C8.89502 43.138 10.775 49.249 13.983 54.309" stroke="#253D4E" stroke-width="2" stroke-linecap="round" stroke-linejoin="round"></path><path d="M50.2139 20.694C47.0809 16.25 42.0469 13.382 36.0249 13.376V13.375H36.0049C30.0089 13.382 24.9919 16.225 21.8569 20.637" stroke="#3EB73C" stroke-width="2" stroke-linecap="round" stroke-linejoin="round"></path></svg>