<svg xmlns="http://www.w3.org/2000/svg" width="24" height="24" viewBox="0 0 24 24" fill="none"><path d="M12 0C5.3796 0 0 5.3796 0 12C0 18.6204 5.3796 24 12 24C18.601 24 23.9657 18.6511 23.9971 12.0576C23.999 12.0385 24 12.0192 24 12C23.9999 11.9796 23.9988 11.9593 23.9966 11.939C23.9966 11.9381 23.9966 11.9371 23.9966 11.9362C23.9618 5.34576 18.5988 0 12 0ZM11.4 1.2648V6.44064C9.95208 6.39744 8.58144 6.19968 7.34256 5.88192C7.56216 5.2836 7.81152 4.72872 8.0868 4.22856C9.0108 2.55096 10.1762 1.52064 11.4 1.2648ZM12.6 1.26456C13.824 1.52016 14.9894 2.55096 15.9132 4.22856C16.1885 4.72848 16.4378 5.28336 16.6574 5.88168C15.4186 6.19944 14.0479 6.39744 12.6 6.4404V1.26456ZM8.30112 1.848C7.83216 2.36544 7.4076 2.9736 7.03536 3.64944C6.71712 4.22784 6.43416 4.86144 6.1884 5.53848C5.47176 5.29368 4.8132 5.00736 4.22856 4.68528C4.18848 4.66344 4.15104 4.64064 4.11192 4.61832C5.2711 3.37843 6.70635 2.42938 8.30112 1.84824M15.6989 1.84824C17.2937 2.42945 18.7289 3.37858 19.8881 4.61856C19.849 4.64088 19.8113 4.66368 19.7714 4.68576C19.1868 5.00736 18.528 5.2944 17.8111 5.5392C17.5658 4.86192 17.2831 4.22808 16.9646 3.64968C16.5924 2.97384 16.1678 2.36568 15.6989 1.84824ZM3.3324 5.5524C3.4368 5.6148 3.5412 5.6772 3.64968 5.7372C4.30728 6.09936 5.03568 6.4164 5.82 6.68352C5.41824 8.1192 5.17728 9.714 5.13096 11.4H1.21728C1.33083 9.28499 2.06666 7.25066 3.3324 5.5524ZM20.6676 5.5524C21.9333 7.25066 22.6692 9.28499 22.7827 11.4H18.865C18.8186 9.71448 18.5786 8.11968 18.1781 6.684C18.9631 6.41688 19.692 6.0996 20.3503 5.73696C20.4586 5.67744 20.5632 5.6148 20.6676 5.5524ZM6.97368 7.02768C8.33328 7.38192 9.82656 7.59432 11.4 7.63752V11.4H6.33192C6.37848 9.82872 6.60696 8.3472 6.97368 7.02792M17.0263 7.02792C17.393 8.3472 17.6215 9.82872 17.6681 11.4H12.6V7.63728C14.1732 7.59408 15.667 7.38192 17.0263 7.02792ZM1.21752 12.6H5.13096C5.17728 14.286 5.41824 15.8806 5.82 17.316C5.03592 17.5836 4.30752 17.9009 3.64968 18.263C3.54144 18.3226 3.4368 18.3854 3.3324 18.4478C2.06662 16.7495 1.33102 14.7151 1.21752 12.6ZM6.33168 12.6H11.4V16.3584C9.82608 16.4016 8.3328 16.6152 6.9732 16.9702C6.60672 15.6514 6.37824 14.1706 6.33168 12.6ZM12.6 12.6H17.6681C17.6215 14.1706 17.3933 15.6514 17.0268 16.9702C15.6672 16.6152 14.1739 16.4018 12.6 16.3584V12.6ZM18.8652 12.6H22.7827C22.6692 14.715 21.9333 16.7493 20.6676 18.4476C20.5632 18.3852 20.4588 18.3228 20.3503 18.2628C19.6922 17.9004 18.9631 17.5831 18.1786 17.3155C18.5794 15.8801 18.8191 14.2855 18.8652 12.6ZM11.4 17.5594V22.7352C10.176 22.4796 9.01056 21.4488 8.0868 19.7712C7.81152 19.2713 7.56216 18.7164 7.34256 18.1181C8.58144 17.8003 9.95208 17.6023 11.4 17.5594ZM12.6 17.5594C14.0479 17.6026 15.4186 17.8003 16.6574 18.1181C16.4378 18.7164 16.1885 19.2713 15.9132 19.7714C14.9892 21.449 13.8238 22.4796 12.6 22.7354V17.5594ZM17.8111 18.4608C18.528 18.7056 19.1868 18.9924 19.7714 19.3145C19.8115 19.3363 19.849 19.3591 19.8881 19.3814C18.7289 20.6214 17.2937 21.5706 15.6989 22.1518C16.1678 21.6343 16.5924 21.0262 16.9646 20.3503C17.2829 19.7719 17.5656 19.1383 17.8111 18.4608ZM6.1884 18.4613C6.43416 19.1383 6.71712 19.7719 7.0356 20.3503C7.4076 21.0262 7.83216 21.6343 8.30112 22.1518C6.70632 21.5706 5.27107 20.6214 4.11192 19.3814C4.15104 19.3591 4.18872 19.3363 4.22856 19.3142C4.8132 18.9926 5.47176 18.7061 6.1884 18.4613Z" fill="white"></path></svg>