<svg xmlns="http://www.w3.org/2000/svg" width="14" height="12" viewBox="0 0 14 12" fill="none"><path d="M0.28754 10.875C0.104206 10.6917 0.01254 10.4583 0.01254 10.175C0.01254 9.89167 0.104206 9.65833 0.28754 9.475L4.16254 5.575L0.28754 1.675C0.104206 1.49167 0.00853994 1.26233 0.000539938 0.987C-0.00812673 0.712333 0.0875396 0.475 0.28754 0.275C0.470873 0.0916663 0.704207 0 0.98754 0C1.27087 0 1.50421 0.0916663 1.68754 0.275L6.28754 4.875C6.38754 4.975 6.45854 5.08333 6.50054 5.2C6.54187 5.31667 6.56254 5.44167 6.56254 5.575C6.56254 5.70833 6.54187 5.83333 6.50054 5.95C6.45854 6.06667 6.38754 6.175 6.28754 6.275L1.68754 10.875C1.50421 11.0583 1.27487 11.154 0.99954 11.162C0.724873 11.1707 0.48754 11.075 0.28754 10.875ZM6.88754 10.875C6.70421 10.6917 6.61254 10.4583 6.61254 10.175C6.61254 9.89167 6.70421 9.65833 6.88754 9.475L10.7625 5.575L6.88754 1.675C6.70421 1.49167 6.60821 1.26233 6.59954 0.987C6.59154 0.712333 6.68754 0.475 6.88754 0.275C7.07087 0.0916663 7.30421 0 7.58754 0C7.87087 0 8.10421 0.0916663 8.28754 0.275L12.8875 4.875C12.9875 4.975 13.0582 5.08333 13.0995 5.2C13.1415 5.31667 13.1625 5.44167 13.1625 5.575C13.1625 5.70833 13.1415 5.83333 13.0995 5.95C13.0582 6.06667 12.9875 6.175 12.8875 6.275L8.28754 10.875C8.10421 11.0583 7.87521 11.154 7.60054 11.162C7.32521 11.1707 7.08754 11.075 6.88754 10.875Z" fill="#3EB73C"></path></svg>