<svg xmlns="http://www.w3.org/2000/svg" width="15" height="17" viewBox="0 0 15 17" fill="none"><path d="M7.8759 0.0143438C8.80293 0 9.72465 0.0085 10.6453 0C10.7011 1.08428 11.091 2.18875 11.8847 2.95534C12.6768 3.74106 13.7972 4.10072 14.8873 4.22237V7.07466C13.8657 7.04119 12.8394 6.82869 11.9123 6.38881C11.5086 6.20606 11.1325 5.97072 10.7643 5.73006C10.7595 7.79981 10.7728 9.86691 10.751 11.9282C10.6958 12.9184 10.3691 13.9039 9.79318 14.7199C8.86668 16.0783 7.25859 16.9639 5.60693 16.9915C4.59384 17.0494 3.58181 16.7732 2.71853 16.2642C1.28787 15.4206 0.281152 13.8763 0.134527 12.2188C0.116058 11.8677 0.113222 11.516 0.126027 11.1648C0.253527 9.81697 0.920246 8.52763 1.95512 7.65053C3.12812 6.62894 4.77128 6.14231 6.30978 6.43025C6.32412 7.47947 6.28215 8.52763 6.28215 9.57684C5.57931 9.34947 4.758 9.41322 4.14387 9.83981C3.69456 10.1358 3.35502 10.5713 3.17753 11.0792C3.0309 11.4383 3.07287 11.8373 3.08137 12.2188C3.24978 13.3811 4.36753 14.3581 5.56071 14.2524C6.35175 14.2439 7.10984 13.7849 7.52209 13.1128C7.65543 12.8775 7.80472 12.6368 7.81268 12.3601C7.88228 11.093 7.85465 9.83131 7.86315 8.56428C7.869 5.70881 7.85465 2.86131 7.87643 0.014875L7.8759 0.0143438Z" fill="white"></path></svg>