<svg xmlns="http://www.w3.org/2000/svg" width="18" height="13" viewBox="0 0 18 13" fill="none"><path d="M10.875 11.375H1.5L1.49812 1.94125L8.64437 6.88875C8.74887 6.96105 8.87293 6.99979 9 6.99979C9.12707 6.99979 9.25113 6.96105 9.35563 6.88875L16.5 1.94375V7.625H17.75V1.375C17.7495 1.04363 17.6176 0.725977 17.3833 0.491664C17.149 0.257351 16.8314 0.125496 16.5 0.125H1.5C1.16858 0.125331 0.850831 0.257133 0.616482 0.491482C0.382133 0.725831 0.250331 1.04358 0.25 1.375V11.375C0.250496 11.7064 0.382351 12.024 0.616664 12.2583C0.850977 12.4926 1.16863 12.6245 1.5 12.625H10.875V11.375ZM15.1244 1.375L9 5.615L2.87563 1.375H15.1244Z" fill="white"></path></svg>